<svg width="35" height="35" viewBox="0 0 35 35" fill="none" xmlns="http://www.w3.org/2000/svg">
<path d="M17.5 0C7.83539 0 0 7.83539 0 17.5C0 24.9177 4.60905 31.2551 11.1193 33.8045C10.9609 32.4218 10.8313 30.2901 11.177 28.7778C11.4938 27.4095 13.2222 20.0782 13.2222 20.0782C13.2222 20.0782 12.7037 19.0267 12.7037 17.4856C12.7037 15.0514 14.1152 13.2366 15.8724 13.2366C17.3704 13.2366 18.0905 14.3601 18.0905 15.6996C18.0905 17.1975 17.1399 19.4444 16.6358 21.5329C16.2181 23.2757 17.5144 24.7016 19.2284 24.7016C22.3395 24.7016 24.7305 21.4177 24.7305 16.6934C24.7305 12.5021 21.7202 9.57819 17.4136 9.57819C12.43 9.57819 9.50617 13.3086 9.50617 17.1687C9.50617 18.6667 10.0823 20.2798 10.8025 21.1584C10.9465 21.3313 10.9609 21.4897 10.9177 21.6625C10.7881 22.2099 10.4856 23.4053 10.428 23.6502C10.356 23.9671 10.1687 24.0391 9.83745 23.8807C7.64815 22.858 6.27984 19.6749 6.27984 17.0967C6.27984 11.5802 10.284 6.51029 17.8457 6.51029C23.9095 6.51029 28.6337 10.8313 28.6337 16.6214C28.6337 22.6564 24.8313 27.5103 19.5597 27.5103C17.7881 27.5103 16.1173 26.5885 15.5556 25.4938C15.5556 25.4938 14.677 28.8354 14.4609 29.6564C14.072 31.1831 13.0062 33.0844 12.286 34.251C13.928 34.7551 15.6564 35.0288 17.4712 35.0288C27.1358 35.0288 34.9712 27.1934 34.9712 17.5288C35 7.83539 27.1646 0 17.5 0Z" fill="#B83722"/>
</svg>
